<svg width="128" height="128" viewBox="0 0 128 128" fill="none" xmlns="http://www.w3.org/2000/svg">
  <defs>
    <linearGradient id="bg" x1="18" y1="14" x2="112" y2="118" gradientUnits="userSpaceOnUse">
      <stop stop-color="#153A4A"/>
      <stop offset="1" stop-color="#0B1622"/>
    </linearGradient>
    <linearGradient id="page" x1="26" y1="18" x2="99" y2="110" gradientUnits="userSpaceOnUse">
      <stop stop-color="#F8FAFC"/>
      <stop offset="1" stop-color="#E7EEF6"/>
    </linearGradient>
    <linearGradient id="wave" x1="38" y1="53" x2="89" y2="82" gradientUnits="userSpaceOnUse">
      <stop stop-color="#24D3C1"/>
      <stop offset="1" stop-color="#14B8A6"/>
    </linearGradient>
  </defs>

  <rect x="8" y="8" width="112" height="112" rx="28" fill="url(#bg)"/>
  <path d="M37 16C26.5066 16 18 24.5066 18 35V88.4545L36.8706 108.821C40.4689 112.705 45.5234 114.909 50.8185 114.909H91C101.493 114.909 110 106.402 110 95.9091V35C110 24.5066 101.493 16 91 16H37Z" fill="url(#page)"/>
  <path d="M84 16V33C84 39.6274 89.3726 45 96 45H110V35C110 24.5066 101.493 16 91 16H84Z" fill="#D7E3F0"/>
  <rect x="35" y="31" width="42" height="8" rx="4" fill="#D4DEE8"/>
  <rect x="35" y="45" width="24" height="6" rx="3" fill="#DCE6EF"/>
  <path d="M34 72C41.5561 60.9043 52.3411 55 64 55C75.6589 55 86.4439 60.9043 94 72C86.4439 83.0957 75.6589 89 64 89C52.3411 89 41.5561 83.0957 34 72Z" fill="url(#wave)"/>
  <circle cx="64" cy="72" r="11" fill="#F97316"/>
  <circle cx="64" cy="72" r="5" fill="#0B1622"/>
  <circle cx="68" cy="68" r="2" fill="#FFF7ED"/>
</svg>
