<svg width="128" height="128" viewBox="0 0 128 128" fill="none" xmlns="http://www.w3.org/2000/svg">
  <rect x="8" y="8" width="112" height="112" rx="28" fill="#1C6A50"/>
  <path
    d="M32 22C21.5066 22 13 30.5066 13 41V48C13 31.9837 25.9837 19 42 19H86C102.016 19 115 31.9837 115 48V41C115 30.5066 106.493 22 96 22H32Z"
    fill="#4FA77E"
    fill-opacity="0.38"
  />

  <rect x="20" y="22" width="88" height="84" rx="18" fill="#EAD39B" stroke="#17211D" stroke-width="6"/>
  <path d="M23 44H105" stroke="#17211D" stroke-width="6" stroke-linecap="round"/>
  <circle cx="35" cy="33" r="4" fill="#1F8F63"/>
  <circle cx="47" cy="33" r="4" fill="#7DBA97"/>
  <circle cx="59" cy="33" r="4" fill="#D7E7DD"/>

  <path d="M64 47V53" stroke="#17211D" stroke-width="5" stroke-linecap="round"/>
  <circle cx="64" cy="39" r="7" fill="#F5C45E" stroke="#17211D" stroke-width="4"/>

  <rect x="36" y="54" width="56" height="39" rx="14" fill="#1F8F63" stroke="#17211D" stroke-width="6"/>
  <circle cx="52.5" cy="69" r="6" fill="#FFF8EE"/>
  <circle cx="75.5" cy="69" r="6" fill="#FFF8EE"/>
  <circle cx="52.5" cy="69" r="2" fill="#17211D"/>
  <circle cx="75.5" cy="69" r="2" fill="#17211D"/>
  <path d="M54 83C58.5 86 69.5 86 74 83" stroke="#FFF8EE" stroke-width="4.5" stroke-linecap="round"/>
</svg>
